<svg width="1600" height="960" viewBox="0 0 1600 960" fill="none" xmlns="http://www.w3.org/2000/svg" role="img" aria-labelledby="title desc">
  <title id="title">Itinerary Workspace product preview</title>
  <desc id="desc">A stylized preview of the itinerary workspace showing a travel planning interface with a map, schedule timeline, and assistant diff.</desc>
  <defs>
    <linearGradient id="bg" x1="128" y1="72" x2="1490" y2="898" gradientUnits="userSpaceOnUse">
      <stop stop-color="#F8F2E8"/>
      <stop offset="1" stop-color="#F1E8D8"/>
    </linearGradient>
    <radialGradient id="washA" cx="0" cy="0" r="1" gradientUnits="userSpaceOnUse" gradientTransform="translate(312 180) rotate(25) scale(420 240)">
      <stop stop-color="#1A6B59" stop-opacity="0.18"/>
      <stop offset="1" stop-color="#1A6B59" stop-opacity="0"/>
    </radialGradient>
    <radialGradient id="washB" cx="0" cy="0" r="1" gradientUnits="userSpaceOnUse" gradientTransform="translate(1270 780) rotate(-18) scale(440 260)">
      <stop stop-color="#D28325" stop-opacity="0.18"/>
      <stop offset="1" stop-color="#D28325" stop-opacity="0"/>
    </radialGradient>
    <linearGradient id="panel" x1="210" y1="170" x2="1360" y2="820" gradientUnits="userSpaceOnUse">
      <stop stop-color="#FFFDF9" stop-opacity="0.96"/>
      <stop offset="1" stop-color="#FBF7F0" stop-opacity="0.92"/>
    </linearGradient>
    <linearGradient id="mapGrad" x1="0" y1="0" x2="1" y2="1">
      <stop stop-color="#E8F2EC"/>
      <stop offset="1" stop-color="#F6EFE4"/>
    </linearGradient>
    <filter id="shadow" x="148" y="114" width="1304" height="728" filterUnits="userSpaceOnUse" color-interpolation-filters="sRGB">
      <feFlood flood-opacity="0" result="BackgroundImageFix"/>
      <feColorMatrix in="SourceAlpha" type="matrix" values="0 0 0 0 0 0 0 0 0 0 0 0 0 0 0 0 0 0 127 0" result="hardAlpha"/>
      <feOffset dy="22"/>
      <feGaussianBlur stdDeviation="24"/>
      <feColorMatrix type="matrix" values="0 0 0 0 0.277 0 0 0 0 0.22 0 0 0 0 0.145 0 0 0 0.14 0"/>
      <feBlend mode="normal" in2="BackgroundImageFix" result="effect1_dropShadow_1_1"/>
      <feBlend mode="normal" in="SourceGraphic" in2="effect1_dropShadow_1_1" result="shape"/>
    </filter>
    <filter id="soft" x="-20%" y="-20%" width="140%" height="140%" filterUnits="objectBoundingBox" color-interpolation-filters="sRGB">
      <feDropShadow dx="0" dy="10" stdDeviation="12" flood-color="#4A4031" flood-opacity="0.08"/>
    </filter>
  </defs>

  <rect width="1600" height="960" rx="40" fill="url(#bg)"/>
  <rect width="1600" height="960" rx="40" fill="url(#washA)"/>
  <rect width="1600" height="960" rx="40" fill="url(#washB)"/>

  <g filter="url(#shadow)">
    <rect x="196" y="142" width="1208" height="632" rx="28" fill="url(#panel)" stroke="#D9CCBC" stroke-width="1.5"/>
  </g>

  <g opacity="0.9">
    <rect x="250" y="190" width="112" height="34" rx="17" fill="#FFF9F1" stroke="#D9CCBC"/>
    <text x="306" y="212" text-anchor="middle" fill="#465650" font-family="Georgia, serif" font-size="15">Trips</text>
    <rect x="370" y="190" width="136" height="34" rx="17" fill="#145A4A"/>
    <text x="438" y="212" text-anchor="middle" fill="#FAF7F1" font-family="Georgia, serif" font-size="15">New Trip</text>
  </g>

  <g>
    <text x="250" y="286" fill="#7C7A74" font-family="Arial, sans-serif" font-size="13" letter-spacing="3.2">AI-ASSISTED ITINERARY EDITOR</text>
    <text x="250" y="346" fill="#1F2D2A" font-family="Georgia, serif" font-size="56" font-weight="700">Asheville Long Weekend</text>
    <text x="250" y="390" fill="#687974" font-family="Arial, sans-serif" font-size="22">Map, timeline, and assistant previews all editing the same trip state.</text>
  </g>

  <g>
    <rect x="548" y="188" width="110" height="34" rx="17" fill="#FFF9F1" stroke="#D9CCBC"/>
    <text x="603" y="210" text-anchor="middle" fill="#526660" font-family="Arial, sans-serif" font-size="14">Mock Mode</text>
    <rect x="668" y="188" width="140" height="34" rx="17" fill="#FFF9F1" stroke="#D9CCBC"/>
    <text x="738" y="210" text-anchor="middle" fill="#526660" font-family="Arial, sans-serif" font-size="14">3 days</text>
    <rect x="818" y="188" width="174" height="34" rx="17" fill="#FFF9F1" stroke="#D9CCBC"/>
    <text x="905" y="210" text-anchor="middle" fill="#526660" font-family="Arial, sans-serif" font-size="14">2 travelers</text>
  </g>

  <g opacity="0.96">
    <rect x="520" y="430" width="560" height="54" rx="22" fill="#F9F3E7" stroke="#D9CCBC"/>
    <text x="586" y="463" text-anchor="middle" fill="#1F2D2A" font-family="Arial, sans-serif" font-size="16" font-weight="700">Day 1</text>
    <text x="700" y="463" text-anchor="middle" fill="#687974" font-family="Arial, sans-serif" font-size="16">Day 2</text>
    <text x="812" y="463" text-anchor="middle" fill="#687974" font-family="Arial, sans-serif" font-size="16">Day 3</text>
    <rect x="924" y="442" width="64" height="28" rx="14" fill="#FFFDF9" stroke="#D9CCBC"/>
    <text x="956" y="461" text-anchor="middle" fill="#526660" font-family="Arial, sans-serif" font-size="13">Add</text>
    <rect x="998" y="442" width="86" height="28" rx="14" fill="#FFFDF9" stroke="#D9CCBC"/>
    <text x="1041" y="461" text-anchor="middle" fill="#526660" font-family="Arial, sans-serif" font-size="13">Remove</text>
  </g>

  <g filter="url(#soft)">
    <rect x="248" y="510" width="456" height="214" rx="24" fill="#FFFCF7" stroke="#D9CCBC"/>
    <text x="280" y="544" fill="#7C7A74" font-family="Arial, sans-serif" font-size="12" letter-spacing="2.6">SPATIAL VIEW</text>
    <text x="280" y="579" fill="#1F2D2A" font-family="Georgia, serif" font-size="34" font-weight="700">Map</text>
    <text x="280" y="603" fill="#687974" font-family="Arial, sans-serif" font-size="15">Connected places, route legs, and stop categories for the active day.</text>
    <rect x="278" y="624" width="396" height="74" rx="18" fill="url(#mapGrad)" stroke="#D9CCBC"/>
    <path d="M316 666C356 636 390 654 430 645C470 636 510 682 550 667C590 652 620 632 648 642" stroke="#2D6CDF" stroke-width="4" stroke-dasharray="10 8" stroke-linecap="round"/>
    <path d="M320 648C352 624 404 620 446 640C488 660 524 628 570 620C608 614 636 620 656 632" stroke="#145A4A" stroke-width="5" stroke-linecap="round"/>
    <circle cx="320" cy="648" r="10" fill="#8B4DB3"/>
    <circle cx="446" cy="640" r="10" fill="#CB5A3F"/>
    <circle cx="570" cy="620" r="10" fill="#D28325"/>
    <circle cx="656" cy="632" r="10" fill="#145A4A"/>
    <rect x="282" y="651" width="84" height="30" rx="15" fill="#FFF" stroke="#D9CCBC"/>
    <text x="324" y="670" text-anchor="middle" fill="#435650" font-family="Arial, sans-serif" font-size="13">Hotel</text>
    <rect x="376" y="651" width="96" height="30" rx="15" fill="#FFF" stroke="#D9CCBC"/>
    <text x="424" y="670" text-anchor="middle" fill="#435650" font-family="Arial, sans-serif" font-size="13">Activity</text>
    <rect x="482" y="651" width="84" height="30" rx="15" fill="#FFF" stroke="#D9CCBC"/>
    <text x="524" y="670" text-anchor="middle" fill="#435650" font-family="Arial, sans-serif" font-size="13">Meal</text>
  </g>

  <g filter="url(#soft)">
    <rect x="730" y="510" width="332" height="214" rx="24" fill="#FFFCF7" stroke="#D9CCBC"/>
    <text x="762" y="544" fill="#7C7A74" font-family="Arial, sans-serif" font-size="12" letter-spacing="2.6">DAILY VIEW</text>
    <text x="762" y="579" fill="#1F2D2A" font-family="Georgia, serif" font-size="34" font-weight="700">Schedule</text>
    <rect x="898" y="544" width="66" height="28" rx="14" fill="#145A4A"/>
    <text x="931" y="563" text-anchor="middle" fill="#F9F7F1" font-family="Arial, sans-serif" font-size="13">Timeline</text>
    <rect x="970" y="544" width="54" height="28" rx="14" fill="#FFF" stroke="#D9CCBC"/>
    <text x="997" y="563" text-anchor="middle" fill="#526660" font-family="Arial, sans-serif" font-size="13">Plan</text>
    <line x1="780" y1="618" x2="1018" y2="618" stroke="#D8CFBF"/>
    <line x1="780" y1="652" x2="1018" y2="652" stroke="#E6DED2"/>
    <line x1="780" y1="686" x2="1018" y2="686" stroke="#E6DED2"/>
    <text x="780" y="612" fill="#8B8A85" font-family="Arial, sans-serif" font-size="12">09:00</text>
    <text x="888" y="612" fill="#8B8A85" font-family="Arial, sans-serif" font-size="12">12:00</text>
    <text x="996" y="612" fill="#8B8A85" font-family="Arial, sans-serif" font-size="12">15:00</text>
    <rect x="812" y="625" width="84" height="22" rx="11" fill="#CB5A3F"/>
    <rect x="904" y="638" width="52" height="16" rx="8" fill="#2D6CDF"/>
    <rect x="960" y="630" width="46" height="22" rx="11" fill="#D28325"/>
    <rect x="834" y="665" width="110" height="22" rx="11" fill="#145A4A"/>
    <rect x="952" y="676" width="40" height="16" rx="8" fill="#2D6CDF"/>
  </g>

  <g filter="url(#soft)">
    <rect x="1088" y="510" width="284" height="214" rx="24" fill="#FFFCF7" stroke="#D9CCBC"/>
    <text x="1120" y="544" fill="#7C7A74" font-family="Arial, sans-serif" font-size="12" letter-spacing="2.6">EDITING VIEW</text>
    <text x="1120" y="579" fill="#1F2D2A" font-family="Georgia, serif" font-size="34" font-weight="700">Workspace</text>
    <rect x="1232" y="544" width="72" height="28" rx="14" fill="#FFF" stroke="#D9CCBC"/>
    <text x="1268" y="563" text-anchor="middle" fill="#526660" font-family="Arial, sans-serif" font-size="13">Selection</text>
    <rect x="1310" y="544" width="56" height="28" rx="14" fill="#145A4A"/>
    <text x="1338" y="563" text-anchor="middle" fill="#F9F7F1" font-family="Arial, sans-serif" font-size="13">AI</text>
    <rect x="1120" y="596" width="220" height="44" rx="16" fill="#FFF" stroke="#D9CCBC"/>
    <text x="1140" y="623" fill="#8A857B" font-family="Arial, sans-serif" font-size="13">Replace dinner with a better-rated option...</text>
    <rect x="1120" y="652" width="88" height="30" rx="15" fill="#145A4A"/>
    <text x="1164" y="672" text-anchor="middle" fill="#F9F7F1" font-family="Arial, sans-serif" font-size="13">Preview</text>
    <rect x="1120" y="692" width="220" height="1" fill="#E1D8CB"/>
    <rect x="1120" y="706" width="236" height="18" rx="9" fill="#F2EBDC"/>
    <text x="1132" y="719" fill="#5B685F" font-family="Arial, sans-serif" font-size="12">Preview diff: dinner moved + route updated</text>
  </g>

  <g opacity="0.98">
    <rect x="240" y="804" width="304" height="68" rx="22" fill="#FFF9F1" stroke="#D9CCBC"/>
    <text x="270" y="831" fill="#1F2D2A" font-family="Georgia, serif" font-size="22" font-weight="700">Shared itinerary state</text>
    <text x="270" y="854" fill="#687974" font-family="Arial, sans-serif" font-size="14">Map, schedule, selection, and assistant stay in sync.</text>
    <rect x="562" y="804" width="276" height="68" rx="22" fill="#FFF9F1" stroke="#D9CCBC"/>
    <text x="592" y="831" fill="#1F2D2A" font-family="Georgia, serif" font-size="22" font-weight="700">Preview before apply</text>
    <text x="592" y="854" fill="#687974" font-family="Arial, sans-serif" font-size="14">Natural-language edits route through planner commands.</text>
    <rect x="856" y="804" width="356" height="68" rx="22" fill="#FFF9F1" stroke="#D9CCBC"/>
    <text x="886" y="831" fill="#1F2D2A" font-family="Georgia, serif" font-size="22" font-weight="700">Google + OpenAI ready</text>
    <text x="886" y="854" fill="#687974" font-family="Arial, sans-serif" font-size="14">Mock mode for iteration, live providers for validation.</text>
  </g>
</svg>
